RBDS023runT35_grf
version=1
nRows=27
nColumns=19
inDegrees=no
endheader
time	ground_force_r_vx	ground_force_r_vy	ground_force_r_vz	ground_force_r_px	ground_force_r_py	ground_force_r_pz	ground_force_r_mx	ground_force_r_my	ground_force_r_mz	ground_force_l_vx	ground_force_l_vy	ground_force_l_vz	ground_force_l_px	ground_force_l_py	ground_force_l_pz	ground_force_l_mx	ground_force_l_my	ground_force_l_mz
     22.49800000	      0.00000000	      0.00000000	      0.00000000	      0.00000000	      0.00000000	      0.00000000	      0.00000000	      0.00000000	      0.00000000	   -186.19992398	   1610.76539215	     31.41111424	      2.36565575	      0.00000000	      0.96813437	      0.00000000	      2.40000604	     -0.00000000
     22.49900000	      0.00000000	      0.00000000	      0.00000000	      0.00000000	      0.00000000	      0.00000000	      0.00000000	      0.00000000	      0.00000000	   -184.21306650	   1623.49052593	     32.21231797	      2.36326887	      0.00000000	      0.96796047	      0.00000000	      2.51890631	     -0.00000000
     22.50000000	      0.00000000	      0.00000000	      0.00000000	      0.00000000	      0.00000000	      0.00000000	      0.00000000	      0.00000000	      0.00000000	   -182.22620902	   1636.21565971	     33.01352170	      2.36088199	      0.00000000	      0.96778657	      0.00000000	      2.63780657	     -0.00000000
     22.50100000	      0.00000000	      0.00000000	      0.00000000	      0.00000000	      0.00000000	      0.00000000	      0.00000000	      0.00000000	      0.00000000	   -179.57532253	   1648.10842669	     33.74834357	      2.35836213	      0.00000000	      0.96763197	      0.00000000	      2.76345112	     -0.00000000
     22.50200000	      0.00000000	      0.00000000	      0.00000000	      0.00000000	      0.00000000	      0.00000000	      0.00000000	      0.00000000	      0.00000000	   -176.92443604	   1660.00119367	     34.48316545	      2.35584226	      0.00000000	      0.96747737	      0.00000000	      2.88909566	     -0.00000000
     22.50300000	      0.00000000	      0.00000000	      0.00000000	      0.00000000	      0.00000000	      0.00000000	      0.00000000	      0.00000000	      0.00000000	   -174.27354956	   1671.89396065	     35.21798732	      2.35332240	      0.00000000	      0.96732277	      0.00000000	      3.01474021	     -0.00000000
     22.50400000	      0.00000000	      0.00000000	      0.00000000	      0.00000000	      0.00000000	      0.00000000	      0.00000000	      0.00000000	      0.00000000	   -171.21158412	   1683.15423328	     35.90261803	      2.35072273	      0.00000000	      0.96718073	      0.00000000	      3.14329177	     -0.00000000
     22.50500000	      0.00000000	      0.00000000	      0.00000000	      0.00000000	      0.00000000	      0.00000000	      0.00000000	      0.00000000	      0.00000000	   -167.94407920	   1694.09825874	     36.56215317	      2.34808315	      0.00000000	      0.96704496	      0.00000000	      3.27329685	     -0.00000000
     22.50600000	      0.00000000	      0.00000000	      0.00000000	      0.00000000	      0.00000000	      0.00000000	      0.00000000	      0.00000000	      0.00000000	   -164.67657429	   1705.04228420	     37.22168831	      2.34544358	      0.00000000	      0.96690920	      0.00000000	      3.40330193	     -0.00000000
     22.50700000	      0.00000000	      0.00000000	      0.00000000	      0.00000000	      0.00000000	      0.00000000	      0.00000000	      0.00000000	      0.00000000	   -161.22190458	   1715.63258033	     37.85355083	      2.34276904	      0.00000000	      0.96677940	      0.00000000	      3.53397709	     -0.00000000
     22.50800000	      0.00000000	      0.00000000	      0.00000000	      0.00000000	      0.00000000	      0.00000000	      0.00000000	      0.00000000	      0.00000000	   -157.39290527	   1725.51541781	     38.43006813	      2.34002455	      0.00000000	      0.96666152	      0.00000000	      3.66599243	     -0.00000000
     22.50900000	      0.00000000	      0.00000000	      0.00000000	      0.00000000	      0.00000000	      0.00000000	      0.00000000	      0.00000000	      0.00000000	   -153.56390596	   1735.39825528	     39.00658542	      2.33728006	      0.00000000	      0.96654364	      0.00000000	      3.79800777	     -0.00000000
     22.51000000	      0.00000000	      0.00000000	      0.00000000	      0.00000000	      0.00000000	      0.00000000	      0.00000000	      0.00000000	      0.00000000	   -149.73490665	   1745.28109275	     39.58310272	      2.33453557	      0.00000000	      0.96642576	      0.00000000	      3.93002311	     -0.00000000
     22.51100000	      0.00000000	      0.00000000	      0.00000000	      0.00000000	      0.00000000	      0.00000000	      0.00000000	      0.00000000	      0.00000000	   -145.40452309	   1753.99786905	     40.06993028	      2.33170164	      0.00000000	      0.96632448	      0.00000000	      4.06185408	     -0.00000000
     22.51200000	      0.00000000	      0.00000000	      0.00000000	      0.00000000	      0.00000000	      0.00000000	      0.00000000	      0.00000000	      0.00000000	   -141.07413953	   1762.71464536	     40.55675783	      2.32886771	      0.00000000	      0.96622320	      0.00000000	      4.19368505	     -0.00000000
     22.51300000	      0.00000000	      0.00000000	      0.00000000	      0.00000000	      0.00000000	      0.00000000	      0.00000000	      0.00000000	      0.00000000	   -136.74375597	   1771.43142166	     41.04358539	      2.32603378	      0.00000000	      0.96612192	      0.00000000	      4.32551603	     -0.00000000
     22.51400000	      0.00000000	      0.00000000	      0.00000000	      0.00000000	      0.00000000	      0.00000000	      0.00000000	      0.00000000	      0.00000000	   -132.12082251	   1779.30795944	     41.46679713	      2.32315047	      0.00000000	      0.96603071	      0.00000000	      4.45593079	     -0.00000000
     22.51500000	      0.00000000	      0.00000000	      0.00000000	      0.00000000	      0.00000000	      0.00000000	      0.00000000	      0.00000000	      0.00000000	   -127.35161410	   1786.76437795	     41.85820096	      2.32024247	      0.00000000	      0.96594453	      0.00000000	      4.58563744	     -0.00000000
     22.51600000	      0.00000000	      0.00000000	      0.00000000	      0.00000000	      0.00000000	      0.00000000	      0.00000000	      0.00000000	      0.00000000	   -122.58240569	   1794.22079647	     42.24960479	      2.31733447	      0.00000000	      0.96585835	      0.00000000	      4.71534409	     -0.00000000
     22.51700000	      0.00000000	      0.00000000	      0.00000000	      0.00000000	      0.00000000	      0.00000000	      0.00000000	      0.00000000	      0.00000000	   -117.68785068	   1801.22994174	     42.60756745	      2.31440664	      0.00000000	      0.96577668	      0.00000000	      4.84380499	     -0.00000000
     22.51800000	      0.00000000	      0.00000000	      0.00000000	      0.00000000	      0.00000000	      0.00000000	      0.00000000	      0.00000000	      0.00000000	   -112.54260246	   1807.34454054	     42.89864777	      2.31143915	      0.00000000	      0.96570403	      0.00000000	      4.96977437	     -0.00000000
     22.51900000	      0.00000000	      0.00000000	      0.00000000	      0.00000000	      0.00000000	      0.00000000	      0.00000000	      0.00000000	      0.00000000	   -107.39735424	   1813.45913934	     43.18972809	      2.30847165	      0.00000000	      0.96563137	      0.00000000	      5.09574376	     -0.00000000
     22.52000000	      0.00000000	      0.00000000	      0.00000000	      0.00000000	      0.00000000	      0.00000000	      0.00000000	      0.00000000	      0.00000000	   -102.25210602	   1819.57373813	     43.48080841	      2.30550416	      0.00000000	      0.96555872	      0.00000000	      5.22171314	     -0.00000000
     22.52100000	      0.00000000	      0.00000000	      0.00000000	      0.00000000	      0.00000000	      0.00000000	      0.00000000	      0.00000000	      0.00000000	    -96.79201122	   1824.27935844	     43.66743152	      2.30249031	      0.00000000	      0.96549806	      0.00000000	      5.34270330	     -0.00000000
     22.52200000	      0.00000000	      0.00000000	      0.00000000	      0.00000000	      0.00000000	      0.00000000	      0.00000000	      0.00000000	      0.00000000	    -91.33191643	   1828.98497874	     43.85405462	      2.29947647	      0.00000000	      0.96543739	      0.00000000	      5.46369346	     -0.00000000
     22.52300000	      0.00000000	      0.00000000	      0.00000000	      0.00000000	      0.00000000	      0.00000000	      0.00000000	      0.00000000	      0.00000000	    -85.87182164	   1833.69059904	     44.04067773	      2.29646263	      0.00000000	      0.96537673	      0.00000000	      5.58468362	     -0.00000000
     22.52400000	      0.00000000	      0.00000000	      0.00000000	      0.00000000	      0.00000000	      0.00000000	      0.00000000	      0.00000000	      0.00000000	    -80.24066458	   1837.42212451	     44.15540181	      2.29342540	      0.00000000	      0.96532311	      0.00000000	      5.70178389	     -0.00000000
